<svg id="Capa_1" enable-background="new 0 0 512 512" height="512" viewBox="0 0 512 512" width="512" xmlns="http://www.w3.org/2000/svg"><g><path d="m30 30h53.857v-30h-83.857v83.857h30z"/><path d="m428.143 0v30h53.857v53.857h30v-83.857z"/><path d="m30 428.143h-30v83.857h83.857v-30h-53.857z"/><path d="m482 482h-53.857v30h83.857v-83.857h-30z"/><path d="m68.857 236.571h167.714v-167.714h-167.714zm30-137.714h107.714v107.714h-107.714z"/><path d="m443.143 275.429h-167.714v167.714h167.714zm-137.714 30h107.714v38.857h-68.856v68.856h-38.857v-107.713zm68.857 107.714v-38.856h38.856v38.856z"/><path d="m206.571 344.286h-38.857v-68.857h-98.857v167.714h167.714v-152.714h-30zm0 68.857h-107.714v-107.714h38.857v68.857h68.857z"/><path d="m137.714 137.714h30v30h-30z"/><path d="m305.429 98.857h38.857v68.856h68.856v38.857h-137.705v30h167.705v-167.713h-167.713v98.643h30zm68.857 0h38.856v38.856h-38.856z"/></g></svg>